# xmcd CD database file
#
# Track frame offsets:
#	150
#	20505
#	41988
#	60627
#	79655
#	97749
#	118952
#	125485
#	146966
#	172336
#	197000
#	218809
#	238505
#	258536
#	279500
#	300061
#
# Disc length: 4271 seconds
#
# Revision: 0
# Processed by: cddbd v1.5.1PL0 Copyright (c) Steve Scherf et al.
# Submitted via: CDex 1.51
#
DISCID=e910ad10
DTITLE=浜崎 あゆみ - A Song for ××
DYEAR=1999
DGENRE=JPop
TTITLE0=Prologue
TTITLE1=A Song for ××
TTITLE2=Hana
TTITLE3=FRIEND
TTITLE4=FRIEND2
TTITLE5=poker face
TTITLE6=Wishing
TTITLE7=YOU
TTITLE8=As if...
TTITLE9=POWDER SNOW
TTITLE10=Trust
TTITLE11=Depend on you
TTITLE12=SIGNAL
TTITLE13=from your letter
TTITLE14=For My Dear...
TTITLE15=Present
EXTD=YEAR: 1999
EXTT0=
EXTT1=
EXTT2=
EXTT3=
EXTT4=
EXTT5=
EXTT6=
EXTT7=
EXTT8=
EXTT9=
EXTT10=
EXTT11=
EXTT12=
EXTT13=
EXTT14=
EXTT15=
PLAYORDER=
